<svg width="32" height="32" xmlns="http://www.w3.org/2000/svg"><g transform="translate(2.667 10.667)" fill-rule="evenodd"><path d="M18.424.354a41.335 41.335 0 0 0-10.17 0c-3.17.394-5.471 3.022-5.47 6.249v.353c.035 2.757 1.89 5.004 4.133 5.004 1.72 0 3.277-1.333 3.876-3.317.368-1.217 1.33-2.003 2.453-2.003h.184c1.123 0 2.086.786 2.453 2.003.6 1.984 2.158 3.317 3.877 3.317 2.28 0 4.134-2.284 4.134-5.093v-.27c-.002-3.224-2.302-5.85-5.47-6.243zM6.856 10.877c-1.787 0-3.24-1.652-3.24-3.683 0-.142.008-.286.023-.428l.551.074a3.423 3.423 0 0 0-.018.354c0 1.683 1.204 3.051 2.684 3.051.283 0 .563-.05.833-.151l.173.6c-.326.121-.665.183-1.006.183zm15.914-4.87l-.553-.058a3.42 3.42 0 0 0 .01-.277c0-1.61-1.106-2.948-2.52-3.046l.035-.63c1.706.118 3.041 1.733 3.041 3.676 0 .111-.004.224-.013.335zm2.797-.6h-1.218c.064.386.1.783.1 1.19v.27c0 .365-.03.72-.084 1.066h1.201c.46 0 .835-.425.835-.948v-.63c0-.523-.374-.948-.834-.948zm-24.467 0c-.46 0-.834.425-.834.948v.63c0 .523.374.948.834.948h1.214a6.839 6.839 0 0 1-.087-.972v-.358c0-.41.037-.808.101-1.196H1.1z" fill-rule="nonzero"/></g></svg>