<svg xmlns="http://www.w3.org/2000/svg" viewBox="0 0 24 24"><path d="M15.818 8.265a31.001 31.001 0 0 0-7.628 0c-2.378.296-4.103 2.267-4.103 4.687v.265c.028 2.068 1.418 3.753 3.1 3.753 1.29 0 2.459-1 2.908-2.488.275-.912.998-1.502 1.84-1.502h.138c.842 0 1.564.59 1.84 1.502.449 1.488 1.617 2.488 2.907 2.488 1.71 0 3.1-1.713 3.1-3.82v-.202c0-2.419-1.726-4.388-4.102-4.683zm-8.676 7.893c-1.34 0-2.43-1.24-2.43-2.762 0-.107.006-.215.017-.321l.414.055c-.01.087-.014.177-.014.266 0 1.261.903 2.288 2.013 2.288.212 0 .422-.038.625-.114l.13.45c-.245.092-.5.138-.755.138zm11.935-3.653l-.415-.043c.006-.07.009-.139.009-.208 0-1.208-.83-2.21-1.89-2.284l.025-.473c1.28.088 2.281 1.3 2.281 2.757 0 .084-.003.168-.01.251zm2.098-.45h-.913c.047.29.075.588.075.893v.203c0 .273-.023.54-.063.799h.9c.346 0 .626-.32.626-.711v-.473c0-.392-.28-.711-.625-.711zm-18.35 0c-.345 0-.626.319-.626.711v.473c0 .392.281.71.626.71h.91a5.13 5.13 0 0 1-.064-.729v-.268c0-.307.027-.606.075-.897h-.921z"/></svg>
